<svg xmlns="http://www.w3.org/2000/svg" xmlns:xlink="http://www.w3.org/1999/xlink"
    xmlns:serif="http://www.serif.com/" viewBox="0 0 32 40" version="1.1" xml:space="preserve"
    style="" x="0px" y="0px" fill="#edf0f1" fill-rule="evenodd" clip-rule="evenodd"
    stroke-linejoin="round"
    stroke-miterlimit="2"><g transform="matrix(1,0,0,1,-48,-192)"><path d="M77,217.506C77,216.978 76.861,216.46 76.597,216.003C76.596,216.001 76.595,215.999 76.593,215.997C71.084,206.633 56.917,206.643 51.414,216.001C51.413,216.003 51.412,216.005 51.411,216.006C51.149,216.459 51.01,216.972 51.008,217.494C51,217.883 51,218.441 51,219C51,219.796 51.316,220.559 51.879,221.121C52.441,221.684 53.204,222 54,222C58.52,222 69.48,222 74,222C74.796,222 75.559,221.684 76.121,221.121C76.684,220.559 77,219.796 77,219L77,217.506ZM75,217.505L75,219C75,219.265 74.895,219.52 74.707,219.707C74.52,219.895 74.265,220 74,220L54,220C53.735,220 53.48,219.895 53.293,219.707C53.105,219.52 53,219.265 53,219C53,218.452 53,217.905 53.008,217.526C53.008,217.519 53.008,217.513 53.008,217.506C53.008,217.332 53.053,217.161 53.14,217.011C57.89,208.94 70.111,208.931 74.867,217.006C74.954,217.158 75,217.33 75,217.505ZM64,194C60.137,194 57,197.137 57,201C57,204.863 60.137,208 64,208C67.863,208 71,204.863 71,201C71,197.137 67.863,194 64,194ZM64,196C66.76,196 69,198.24 69,201C69,203.76 66.76,206 64,206C61.24,206 59,203.76 59,201C59,198.24 61.24,196 64,196Z"/></g>
    <!-- <text x="0" y="47" fill="#ffe4c4" font-size="5px" font-weight="bold"
    font-family="'Helvetica Neue', Helvetica, Arial-Unicode, Arial, Sans-serif">Created by Mila
    Karmila</text><text x="0" y="52" fill="#000000" font-size="5px" font-weight="bold"
    font-family="'Helvetica Neue', Helvetica, Arial-Unicode, Arial, Sans-serif">from the Noun
    Project</text> -->
</svg>